<svg width="144" height="144" viewBox="0 0 144 144" fill="none" xmlns="http://www.w3.org/2000/svg">
<rect width="144" height="144" fill="#212121"/>
<path d="M49.011 30H74.3956H75C74.7985 55.3669 74.3956 106.691 74.3956 109.05C74.3956 111.41 72.7839 112 71.978 112H26.044L29.0659 96.0719C26.6484 96.0719 26.044 94.4988 26.044 93.7122V85.4532C26.044 83.0935 24.8352 82.5036 24.2308 82.5036H22.4176C20.4835 82.5036 20 80.9305 20 80.1439V72.4748C20 70.1151 21.6117 69.5252 22.4176 69.5252H29.6703C31.6044 69.5252 32.8938 67.952 33.2967 67.1655C34.707 59.4964 37.6484 43.6863 38.1319 41.7986C38.6154 39.9108 39.9451 39.4388 40.5495 39.4388H44.1758C46.1099 39.4388 46.5934 37.0791 46.5934 35.8993V32.3597C46.5934 30.4719 48.2051 30 49.011 30Z" fill="white" stroke="white"/>
<rect width="15" height="14" rx="7" transform="matrix(-1 0 0 1 62 83)" fill="#212121"/>
<rect x="57" y="102" width="18" height="4" fill="#212121"/>
<path d="M80 108.779C80 112.578 82.8008 113.156 84.2012 112.969H91.4834C95.7406 112.969 96.8049 110.176 96.8049 108.779V83.9162C96.8049 81.2343 98.8588 80.7501 99.8858 80.8432H109.689C111.929 80.8432 112.303 78.9808 112.209 78.0496V67.1547C112.209 64.6963 110.529 63.8955 109.689 63.8024H100.726C98.0373 63.8024 96.9916 61.94 96.8049 61.0088V51.5106C96.8049 48.3818 99.419 47.0409 100.726 46.7615H119.211C123.469 46.7615 124.16 43.9679 123.973 42.5711V34.7491C123.973 31.3968 120.799 30.1862 119.211 30H80V108.779Z" fill="#27AE60" stroke="#27AE60"/>
</svg>
